<?xml version="1.0" encoding="UTF-8"?>
<svg version="1.1" xmlns="http://www.w3.org/2000/svg" width="218" height="148">
<path d="M0 0 C5.62556828 4.55452663 9.27020541 9.05683506 10.23828125 16.34765625 C10.45568346 21.653629 10.03530179 25.65594554 7.73828125 30.4609375 C4.88658082 36.57314856 6.38807286 42.1640932 7.86328125 48.5234375 C8.52328125 48.1934375 9.18328125 47.8634375 9.86328125 47.5234375 C17.01399614 46.78910483 22.96346195 47.1960074 28.86328125 51.5234375 C34.01660064 56.56223869 36.30483204 61.82371146 37.36328125 68.8359375 C36.84698755 72.64360355 35.8097738 74.57444475 33.98828125 77.8984375 C32.49144935 80.6548234 32.49144935 80.6548234 31.86328125 83.5234375 C33.01880451 86.37749306 34.43189048 88.25706342 36.47265625 90.55078125 C37.86328125 92.5234375 37.86328125 92.5234375 37.56640625 94.77734375 C37.334375 95.35355469 37.10234375 95.92976563 36.86328125 96.5234375 C32.35120928 95.01246652 30.40612942 91.3757962 27.92578125 87.5859375 C23.6599258 81.17645174 19.33804491 74.80714734 14.984375 68.45703125 C14.39168823 67.59170776 13.79900146 66.72638428 13.18835449 65.83483887 C11.74710026 63.73073852 10.30540359 61.6269429 8.86328125 59.5234375 C8.85963562 60.13207642 8.85598999 60.74071533 8.85223389 61.36779785 C8.81028139 67.72767726 8.74084671 74.08684357 8.65576172 80.44628906 C8.62761236 82.81665906 8.60636796 85.18712188 8.59228516 87.55761719 C8.57077274 90.97378856 8.52407731 94.38885105 8.47265625 97.8046875 C8.47142761 98.85708618 8.47019897 99.90948486 8.46893311 100.99377441 C8.32287975 108.40385642 7.0943741 113.77912856 2.1171875 119.546875 C-3.67411127 124.17456409 -7.99510565 126.02946285 -15.51171875 125.828125 C-20.86843456 125.20636334 -25.23078174 123.51345997 -28.99609375 119.58203125 C-32.52381075 115.02119712 -34.23712486 111.51515484 -34.34204102 105.68481445 C-34.36198624 104.7040242 -34.38193146 103.72323395 -34.40248108 102.71272278 C-34.41919357 101.65639145 -34.43590607 100.60006012 -34.453125 99.51171875 C-34.4739061 98.42835739 -34.49468719 97.34499603 -34.51609802 96.22880554 C-34.58153672 92.76458134 -34.64045228 89.3002807 -34.69921875 85.8359375 C-34.74240936 83.48892435 -34.78602382 81.14191897 -34.83007812 78.79492188 C-34.93721232 73.03784146 -35.03898939 67.28068483 -35.13671875 61.5234375 C-42.16083904 70.84131007 -49.12844915 80.18210985 -55.83789062 89.73046875 C-56.36060547 90.46394531 -56.88332031 91.19742188 -57.421875 91.953125 C-57.8744165 92.59491699 -58.32695801 93.23670898 -58.79321289 93.89794922 C-60.13671875 95.5234375 -60.13671875 95.5234375 -63.13671875 97.5234375 C-63.79671875 97.1934375 -64.45671875 96.8634375 -65.13671875 96.5234375 C-64.7497099 93.13711009 -64.22806399 91.63358911 -62.01171875 88.9609375 C-59.90111402 86.77025396 -59.90111402 86.77025396 -60.26171875 84.5234375 C-60.88902483 83.08959504 -61.52699938 81.66040184 -62.171875 80.234375 C-64.13883247 74.70778195 -64.08356224 68.12253932 -61.88671875 62.6484375 C-58.42834728 56.47277415 -55.00125404 52.61462044 -48.13671875 50.5234375 C-43.28452041 50.04617209 -38.78272784 49.9747678 -34.13671875 51.5234375 C-33.77081129 49.79671716 -33.4194968 48.06690095 -33.07421875 46.3359375 C-32.87699219 45.37300781 -32.67976563 44.41007812 -32.4765625 43.41796875 C-31.95315173 38.95995292 -32.73116439 35.77327224 -35.13671875 32.0234375 C-38.63062715 26.13696139 -39.1206926 19.70532636 -37.55859375 13.06640625 C-34.85729568 5.07301968 -29.6548202 -0.21751177 -22.13671875 -3.9765625 C-13.91696261 -5.34652186 -6.97990046 -4.82340471 0 0 Z M-27.44921875 4.8359375 C-31.9240955 9.31081425 -33.75635515 13.85311978 -34.26171875 20.0859375 C-33.99435354 25.29955903 -32.09027015 30.18136468 -28.7421875 34.1953125 C-23.97310646 38.47364378 -18.62973181 40.04661959 -12.28125 39.828125 C-6.03250615 38.94032533 -1.48555815 36.46074563 2.36328125 31.4609375 C5.92252652 26.30991865 6.56096301 21.66303702 5.86328125 15.5234375 C4.01307606 9.37094794 0.24946642 4.94896112 -5.13671875 1.5234375 C-13.44178682 -1.57336754 -20.46574984 -0.56275417 -27.44921875 4.8359375 Z M-0.78125 39.3984375 C-8.35716856 43.32972497 -16.15137983 43.82399776 -24.38671875 41.5234375 C-25.29421875 41.1934375 -26.20171875 40.8634375 -27.13671875 40.5234375 C-30.20922774 48.14996197 -30.58999606 54.85387219 -30.5703125 63.02734375 C-30.57555435 64.30520248 -30.5807962 65.58306122 -30.5861969 66.89964294 C-30.59259629 69.59023301 -30.59276276 72.27996715 -30.58276367 74.97045898 C-30.57125594 78.39894725 -30.59153723 81.82640821 -30.62068081 85.2547617 C-30.6435453 88.55395997 -30.63657252 91.8530849 -30.6328125 95.15234375 C-30.64404648 96.37337296 -30.65528046 97.59440216 -30.66685486 98.85243225 C-30.60957416 105.88399904 -29.96796359 110.56630564 -26.13671875 116.5234375 C-22.05125822 120.31707942 -18.10096558 121.34384659 -12.66796875 121.6875 C-7.20689177 121.33354131 -3.46101636 118.91743498 0.23828125 115.0234375 C3.08421094 110.64508413 4.11402132 107.91197115 4.12207031 102.61254883 C4.12837463 101.42063431 4.13467896 100.22871979 4.14117432 99.00068665 C4.13712585 97.71526474 4.13307739 96.42984283 4.12890625 95.10546875 C4.1302549 93.76511057 4.1321971 92.42475287 4.13470459 91.08439636 C4.13765153 88.27423447 4.13337553 85.46419981 4.12402344 82.65405273 C4.1126841 79.07446693 4.1191557 75.49518291 4.13116837 71.91560841 C4.13844585 69.14527678 4.1360713 66.37501491 4.13091278 63.60468102 C4.12895104 61.65009234 4.13496947 59.69550083 4.14117432 57.74092102 C4.1060558 51.01350969 3.62891375 45.02270091 1.86328125 38.5234375 C0.69994697 38.44515128 0.69994697 38.44515128 -0.78125 39.3984375 Z M11.86328125 51.5234375 C11.86328125 55.55782097 11.93714268 56.12765868 14.09375 59.16796875 C14.56748047 59.84537109 15.04121094 60.52277344 15.52929688 61.22070312 C16.03138672 61.91873047 16.53347656 62.61675781 17.05078125 63.3359375 C17.53353516 64.02236328 18.01628906 64.70878906 18.51367188 65.41601562 C19.95366261 67.45906288 21.40655547 69.4922977 22.86328125 71.5234375 C23.81784332 72.86058073 24.77227961 74.19781377 25.7265625 75.53515625 C26.43167969 76.52128906 27.13679688 77.50742188 27.86328125 78.5234375 C31.58173063 76.04447124 31.90648136 74.82903701 32.86328125 70.5234375 C32.86328125 64.45974862 31.45708495 60.90633388 27.6015625 56.22265625 C23.81279403 52.51902864 20.09805941 51.58223646 14.92578125 51.3359375 C13.91515625 51.3978125 12.90453125 51.4596875 11.86328125 51.5234375 Z M-53.80859375 59.17578125 C-57.9899751 63.8848131 -59.36461727 67.0192383 -59.3046875 73.515625 C-59.08751187 76.11163141 -58.29644098 78.20399303 -57.13671875 80.5234375 C-53.66624068 79.36661148 -53.15883321 78.54249024 -51.10546875 75.62890625 C-50.26048828 74.44264648 -50.26048828 74.44264648 -49.3984375 73.23242188 C-48.81707031 72.40033203 -48.23570313 71.56824219 -47.63671875 70.7109375 C-46.48061719 69.07932189 -45.32437198 67.44780806 -44.16796875 65.81640625 C-43.65814453 65.0896167 -43.14832031 64.36282715 -42.62304688 63.61401367 C-41.13671875 61.5234375 -41.13671875 61.5234375 -39.38476562 59.44262695 C-38.97291016 58.80929443 -38.56105469 58.17596191 -38.13671875 57.5234375 C-38.46671875 56.5334375 -38.79671875 55.5434375 -39.13671875 54.5234375 C-45.2119043 54.15892637 -49.36033945 54.77949254 -53.80859375 59.17578125 Z " fill="#120F10" transform="translate(125.13671875,12.4765625)"/>
<path d="M0 0 C2.4375 2.5 2.4375 2.5 4 5 C4.70125 4.175 5.4025 3.35 6.125 2.5 C9 0 9 0 12.0625 -0.6875 C15 0 15 0 17.3125 2.5625 C20.72445636 9.51278147 20.31082595 15.76611008 18 23 C16.3125 25.6875 16.3125 25.6875 14 27 C10.31864501 26.93541482 7.96838114 26.78095253 5.0625 24.4375 C4.711875 23.963125 4.36125 23.48875 4 23 C3.29875 23.66 2.5975 24.32 1.875 25 C-1.49827337 27.34662495 -2.97749297 27.59909679 -7 27 C-9.3125 25.875 -9.3125 25.875 -11 24 C-12.45186172 19.33330162 -11.63431876 16.49437659 -10 12 C-10.33 11.34 -10.66 10.68 -11 10 C-11.57189542 3.70915033 -11.57189542 3.70915033 -9.4375 1.0625 C-6.01830718 -0.42791738 -3.68928508 -0.52704073 0 0 Z M-5 5 C-5.33 6.32 -5.66 7.64 -6 9 C-5.01 9.33 -4.02 9.66 -3 10 C-2.67 8.35 -2.34 6.7 -2 5 C-2.99 5 -3.98 5 -5 5 Z M11 5 C8.84835297 8.22747055 8.72754921 9.20505639 8.75 12.9375 C8.74484375 13.79214844 8.7396875 14.64679688 8.734375 15.52734375 C9.01286367 18.11974567 9.69330828 19.76514234 11 22 C12.61077897 20.87773187 12.61077897 20.87773187 14 19 C14.40108293 16.09750996 14.40108293 16.09750996 14.25 12.9375 C14.23453125 11.87402344 14.2190625 10.81054688 14.203125 9.71484375 C14.17511201 7.03419699 14.17511201 7.03419699 13 5 C12.34 5 11.68 5 11 5 Z M3 8 C2.34 9.65 1.68 11.3 1 13 C1.99 13.99 2.98 14.98 4 16 C4 13.36 4 10.72 4 8 C3.67 8 3.34 8 3 8 Z M-5 16 C-5.33 17.65 -5.66 19.3 -6 21 C-4.68 21.33 -3.36 21.66 -2 22 C-0.98888907 18.95086772 -0.98888907 18.95086772 -2 16 C-2.99 16 -3.98 16 -5 16 Z " fill="#14212D" transform="translate(182,116)"/>
<path d="M0 0 C3.875 1.875 3.875 1.875 5 3 C6.5956376 3.3720248 8.20210335 3.69819799 9.8125 4 C12.90289463 4.58429913 15.95639333 5.20539872 19 6 C19 6.66 19 7.32 19 8 C14.05 7.67 9.1 7.34 4 7 C3.58427734 9.02253906 3.58427734 9.02253906 3.16015625 11.0859375 C2.79441692 12.84898864 2.42852352 14.61200783 2.0625 16.375 C1.88009766 17.26445313 1.69769531 18.15390625 1.50976562 19.0703125 C1.33251953 19.92109375 1.15527344 20.771875 0.97265625 21.6484375 C0.81031494 22.43395996 0.64797363 23.21948242 0.48071289 24.02880859 C0 26 0 26 -1 28 C-1.66 27.67 -2.32 27.34 -3 27 C-3.37309899 25.34178227 -3.70700977 23.67422986 -4 22 C-5.63135951 20.36864049 -7.7090994 20.40923282 -9.9375 20 C-14.78587699 19.1070615 -14.78587699 19.1070615 -17 18 C-17 17.34 -17 16.68 -17 16 C-15.22925083 15.97294271 -13.45838289 15.95357805 -11.6875 15.9375 C-10.70136719 15.92589844 -9.71523437 15.91429687 -8.69921875 15.90234375 C-6 16 -6 16 -3 17 C-2.86722656 16.36191406 -2.73445313 15.72382812 -2.59765625 15.06640625 C-2.42105469 14.24011719 -2.24445313 13.41382813 -2.0625 12.5625 C-1.88847656 11.73878906 -1.71445313 10.91507813 -1.53515625 10.06640625 C-1 8 -1 8 0 7 C0.04092937 4.66702567 0.04241723 2.33294775 0 0 Z " fill="#141112" transform="translate(94,47)"/>
<path d="M0 0 C2.75 -0.375 2.75 -0.375 6 0 C9.64957851 4.04412754 10.82025413 7.60762385 11 13 C10.52438224 17.73422596 9.92108367 21.71048287 7.125 25.625 C5 27 5 27 1 27 C0.67 26.01 0.34 25.02 0 24 C1.98 23.34 3.96 22.68 6 22 C6 17.05 6 12.1 6 7 C5.34 7 4.68 7 4 7 C4 6.34 4 5.68 4 5 C1.49171464 6.90354807 0.99864995 8.00579726 0.26953125 11.13671875 C0.11871094 12.30847656 -0.03210938 13.48023438 -0.1875 14.6875 C-0.34605469 15.86699219 -0.50460938 17.04648438 -0.66796875 18.26171875 C-0.77753906 19.16535156 -0.88710937 20.06898438 -1 21 C-1.66 21 -2.32 21 -3 21 C-3.08139142 18.60347472 -3.14067009 16.20974564 -3.1875 13.8125 C-3.22520508 12.80219727 -3.22520508 12.80219727 -3.26367188 11.77148438 C-3.32959985 7.26640594 -2.61842805 4.64930523 0 1 C0 0.67 0 0.34 0 0 Z " fill="#130D13" transform="translate(191,116)"/>
<path d="M0 0 C1.32 0.33 2.64 0.66 4 1 C4 9.25 4 17.5 4 26 C2.35 26 0.7 26 -1 26 C-1 20.39 -1 14.78 -1 9 C-2.32 8.67 -3.64 8.34 -5 8 C-4.46104623 4.2273236 -3.00464642 2.31787009 0 0 Z " fill="#201116" transform="translate(162,116)"/>
<path d="M0 0 C-0.825 0.7425 -1.65 1.485 -2.5 2.25 C-5.44844853 4.87387385 -5.44844853 4.87387385 -5 9 C-2.66834966 9.33498301 -2.66834966 9.33498301 0 9 C1.32 7.68 2.64 6.36 4 5 C4.33 10.61 4.66 16.22 5 22 C3.68 22.33 2.36 22.66 1 23 C1.33 20.36 1.66 17.72 2 15 C0.02 15 -1.96 15 -4 15 C-3.34 18.3 -2.68 21.6 -2 25 C-6 24 -6 24 -7.3125 22.3125 C-8.50309874 18.30775877 -7.28820368 14.86461104 -6 11 C-6.33 10.34 -6.66 9.68 -7 9 C-7.3125 5.5625 -7.3125 5.5625 -7 2 C-4.37226805 -0.89956629 -3.79438356 -1.26479452 0 0 Z " fill="#1F1B1D" transform="translate(178,117)"/>
<path d="M0 0 C0.33 0 0.66 0 1 0 C1 1.98 1 3.96 1 6 C1.66 4.02 2.32 2.04 3 0 C3.66 0 4.32 0 5 0 C4.88140625 0.67804687 4.7628125 1.35609375 4.640625 2.0546875 C3.63806928 9.29313977 4.2277125 14.64978562 8 21 C10.39577929 23.5203963 10.39577929 23.5203963 13 25 C13.99 25.66 14.98 26.32 16 27 C12.85375007 27.26218749 11.38162983 27.24754367 8.6875 25.5 C8.130625 25.005 7.57375 24.51 7 24 C7 25.98 7 27.96 7 30 C6.34 30.33 5.68 30.66 5 31 C5.1546875 29.7625 5.1546875 29.7625 5.3125 28.5 C4.93717702 24.29638266 3.47688941 22.30391808 1.1796875 18.87109375 C-1.91824546 13.95748484 -1.60598371 7.02991854 -0.5 1.5 C-0.335 1.005 -0.17 0.51 0 0 Z " fill="#0B090A" transform="translate(88,24)"/>
<path d="M0 0 C1.32 0.33 2.64 0.66 4 1 C3.35546875 1.50015625 2.7109375 2.0003125 2.046875 2.515625 C-0.65123945 5.79043567 -0.66534331 8.67878271 -0.75 12.75 C-0.79447266 13.79607422 -0.79447266 13.79607422 -0.83984375 14.86328125 C-0.91018458 16.57490813 -0.95739946 18.28745815 -1 20 C-0.34 20 0.32 20 1 20 C1 18.35 1 16.7 1 15 C3 17 3 17 5 20 C6.35091528 17.29816945 6.33858058 14.88191794 6.5625 11.875 C6.64628906 10.77929688 6.73007813 9.68359375 6.81640625 8.5546875 C6.87699219 7.71164063 6.93757812 6.86859375 7 6 C9 8 9 8 9.265625 10.96875 C9.26046875 12.1340625 9.2553125 13.299375 9.25 14.5 C9.25515625 15.6653125 9.2603125 16.830625 9.265625 18.03125 C9 21 9 21 7 23 C5.9790625 23.2475 5.9790625 23.2475 4.9375 23.5 C3.9784375 23.7475 3.9784375 23.7475 3 24 C2.67 24.66 2.34 25.32 2 26 C-2.17488381 22.36381088 -2.79441559 19.71608641 -3.203125 14.31640625 C-3.29788309 8.74936843 -3.13232308 4.82899809 0 0 Z " fill="#1C181E" transform="translate(189,117)"/>
<path d="M0 0 C0.33 0 0.66 0 1 0 C1 13.86 1 27.72 1 42 C0.67 42 0.34 42 0 42 C-0.66 38.04 -1.32 34.08 -2 30 C-2.33 30 -2.66 30 -3 30 C-3 22.74 -3 15.48 -3 8 C-2.34 8 -1.68 8 -1 8 C-0.67 5.36 -0.34 2.72 0 0 Z " fill="#0C0708" transform="translate(94,67)"/>
<path d="M0 0 C1.41441874 2.82883747 1.31900332 4.87376745 1 8 C-0.6875 10 -0.6875 10 -3 11 C-5.75 10.1875 -5.75 10.1875 -8 9 C-9.32561852 2.61292897 -9.32561852 2.61292897 -7.9375 0 C-5.03375925 -1.49870491 -3.06725634 -0.86683331 0 0 Z M-4 4 C-3 6 -3 6 -3 6 Z " fill="#0E0C1B" transform="translate(211,117)"/>
<path d="M0 0 C3 1 3 1 4.125 2.625 C6.57060634 9.26307435 6.15827539 15.36359173 4 22 C2.125 24.625 2.125 24.625 0 26 C-1.32 26 -2.64 26 -4 26 C-4.33 25.01 -4.66 24.02 -5 23 C-3.02 22.34 -1.04 21.68 1 21 C2.28422785 10.31100899 2.28422785 10.31100899 0 0 Z " fill="#0A1225" transform="translate(196,117)"/>
<path d="M0 0 C5.31829756 -0.88372909 11.14958061 -1.10749483 15.75 2 C16.86375 2.99 16.86375 2.99 18 4 C17.67 5.32 17.34 6.64 17 8 C16.38253906 7.72285156 15.76507813 7.44570312 15.12890625 7.16015625 C9.30347882 4.66861119 4.32222824 3.40788569 -2 3 C-1.34 2.01 -0.68 1.02 0 0 Z " fill="#100C0D" transform="translate(137,61)"/>
<path d="M0 0 C5.28 0 10.56 0 16 0 C16 3.96 16 7.92 16 12 C15.34 11.67 14.68 11.34 14 11 C13.62690101 9.34178227 13.29299023 7.67422986 13 6 C11.36864049 4.36864049 9.2909006 4.40923282 7.0625 4 C2.21412301 3.1070615 2.21412301 3.1070615 0 2 C0 1.34 0 0.68 0 0 Z " fill="#1B1819" transform="translate(77,63)"/>
<path d="M0 0 C2.64 0.99 5.28 1.98 8 3 C8 3.66 8 4.32 8 5 C7.01 5 6.02 5 5 5 C11.49419052 6.22226261 15.07387564 5.84453969 21 3 C21.99 3.33 22.98 3.66 24 4 C17.88950279 7.62103538 13.11103538 9.11588555 6 8 C2.81509648 6.97662259 -0.15749161 5.77413963 -3 4 C-3.33 3.34 -3.66 2.68 -4 2 C-3.01 2 -2.02 2 -1 2 C-0.67 1.34 -0.34 0.68 0 0 Z " fill="#0D0B0C" transform="translate(101,130)"/>
<path d="M0 0 C2.3125 0.5625 2.3125 0.5625 4.3125 3.5625 C3.6525 3.5625 2.9925 3.5625 2.3125 3.5625 C1.9825 5.2125 1.6525 6.8625 1.3125 8.5625 C0.9825 7.5725 0.6525 6.5825 0.3125 5.5625 C-0.6775 5.8925 -1.6675 6.2225 -2.6875 6.5625 C-3.0175 7.5525 -3.3475 8.5425 -3.6875 9.5625 C-3.0275 9.5625 -2.3675 9.5625 -1.6875 9.5625 C-2.0175 10.5525 -2.3475 11.5425 -2.6875 12.5625 C-2.6875 11.9025 -2.6875 11.2425 -2.6875 10.5625 C-4.0075 10.5625 -5.3275 10.5625 -6.6875 10.5625 C-7.5 8.9375 -7.5 8.9375 -7.6875 6.5625 C-3.93516839 0.8236399 -3.93516839 0.8236399 0 0 Z " fill="#1C1618" transform="translate(179.6875,115.4375)"/>
<path d="M0 0 C0.33 1.32 0.66 2.64 1 4 C-6.40918359 7.28201479 -11.99142015 8.59824153 -20 7 C-17.5281143 4.5281143 -16.22552687 4.55680044 -12.8125 4.0625 C-8.09501908 3.28659853 -4.28319941 2.0940086 0 0 Z " fill="#1C181A" transform="translate(125,129)"/>
<path d="M0 0 C0.66 0.33 1.32 0.66 2 1 C0.515 3.475 0.515 3.475 -1 6 C-0.34 6 0.32 6 1 6 C1 5.34 1 4.68 1 4 C1.66 4 2.32 4 3 4 C3 10.6 3 17.2 3 24 C2.34 24 1.68 24 1 24 C1 18.39 1 12.78 1 7 C-0.32 6.67 -1.64 6.34 -3 6 C-2.42655063 3.13275314 -2.1385485 2.1385485 0 0 Z " fill="#715441" transform="translate(160,118)"/>
<path d="M0 0 C4.55555556 0.55555556 4.55555556 0.55555556 6 2 C6.125 4.5 6.125 4.5 6 7 C5 8 5 8 1.9375 8.0625 C0.968125 8.041875 -0.00125 8.02125 -1 8 C-1.625 5.125 -1.625 5.125 -2 2 C-1.34 1.34 -0.68 0.68 0 0 Z " fill="#080707" transform="translate(109,28)"/>
<path d="M0 0 C-1.65 1.65 -3.3 3.3 -5 5 C-4.690625 5.763125 -4.38125 6.52625 -4.0625 7.3125 C-3.32106407 9.18789677 -2.63771783 11.08684652 -2 13 C-2.515625 13.33 -3.03125 13.66 -3.5625 14 C-5.33227513 16.46229584 -5.07158882 17.25492998 -4.6875 20.1875 C-4.460625 21.445625 -4.23375 22.70375 -4 24 C-4.99 23.67 -5.98 23.34 -7 23 C-8.130255 18.25292901 -7.65067325 15.53935143 -6 11 C-6.33 10.34 -6.66 9.68 -7 9 C-7.3125 5.5625 -7.3125 5.5625 -7 2 C-4.37226805 -0.89956629 -3.79438356 -1.26479452 0 0 Z " fill="#654833" transform="translate(178,117)"/>
<path d="M0 0 C0.99 0.33 1.98 0.66 3 1 C3 2.32 3 3.64 3 5 C3.66 5.33 4.32 5.66 5 6 C5 6.66 5 7.32 5 8 C8.22404978 6.33045181 8.22404978 6.33045181 8.6875 3.375 C8.790625 2.59125 8.89375 1.8075 9 1 C9.33 1 9.66 1 10 1 C10.33 3.31 10.66 5.62 11 8 C8.44931155 10.35448165 7.28982642 10.98327924 3.75 11.1875 C2.8425 11.125625 1.935 11.06375 1 11 C0.67 7.37 0.34 3.74 0 0 Z " fill="#14121F" transform="translate(174,132)"/>
<path d="M0 0 C0.66 0.66 1.32 1.32 2 2 C1.67 2.66 1.34 3.32 1 4 C1.66 4.33 2.32 4.66 3 5 C1.02 7.64 -0.96 10.28 -3 13 C-3.99 12.67 -4.98 12.34 -6 12 C-5.54300722 6.97307937 -3.00758252 3.85103739 0 0 Z " fill="#141213" transform="translate(66,97)"/>
<path d="M0 0 C0 3.99904969 -1.72586967 5.80200422 -4 9 C-3.34 9.33 -2.68 9.66 -2 10 C-3.65167557 13.5786304 -5.78286492 16.74820188 -8 20 C-8.66 19.34 -9.32 18.68 -10 18 C-9.34 16.68 -8.68 15.36 -8 14 C-8.66 13.67 -9.32 13.34 -10 13 C-5.05 6.565 -5.05 6.565 0 0 Z " fill="#0E0B0C" transform="translate(84,73)"/>
<path d="M0 0 C0.625 1.8125 0.625 1.8125 1 4 C0.01 5.485 0.01 5.485 -1 7 C-1.66 7 -2.32 7 -3 7 C-3 8.98 -3 10.96 -3 13 C-7.625 15.125 -7.625 15.125 -11 14 C-9.87970983 12.51726301 -8.75361382 11.03891114 -7.625 9.5625 C-6.99851562 8.73878906 -6.37203125 7.91507813 -5.7265625 7.06640625 C-4 5 -4 5 -2 4 C-0.86649466 1.98330173 -0.86649466 1.98330173 0 0 Z " fill="#171415" transform="translate(132,37)"/>
<path d="M0 0 C1.32 0.33 2.64 0.66 4 1 C3.01773438 1.70382813 3.01773438 1.70382813 2.015625 2.421875 C-0.95990426 6.22778452 -0.44027072 9.56641305 -0.25 14.25 C-0.23195312 15.09046875 -0.21390625 15.9309375 -0.1953125 16.796875 C-0.14830798 18.86507395 -0.07656724 20.93268441 0 23 C-0.66 22.67 -1.32 22.34 -2 22 C-3.76625686 15.55769133 -4.01866608 8.50422079 -1.5 2.3125 C-1.005 1.549375 -0.51 0.78625 0 0 Z " fill="#4C3727" transform="translate(189,117)"/>
<path d="M0 0 C2 1 2 1 3.109375 3.1796875 C4.09589757 6.30367564 4.26639402 8.85439274 4.25 12.125 C4.25515625 13.15882812 4.2603125 14.19265625 4.265625 15.2578125 C4 18 4 18 2 21 C1.67 20.01 1.34 19.02 1 18 C0.34 19.32 -0.32 20.64 -1 22 C-1.33 21.34 -1.66 20.68 -2 20 C-1.319375 19.071875 -0.63875 18.14375 0.0625 17.1875 C3.41424575 11.81097951 1.29591303 5.82285246 0 0 Z " fill="#080607" transform="translate(131,20)"/>
<path d="M0 0 C0.33 0 0.66 0 1 0 C1.33 5.61 1.66 11.22 2 17 C0.68 17.33 -0.64 17.66 -2 18 C-1.690625 16.63875 -1.690625 16.63875 -1.375 15.25 C-0.9872755 11.88972103 -1.19588033 10.75924185 -3 8 C-2.34 8 -1.68 8 -1 8 C-1.20625 7.236875 -1.4125 6.47375 -1.625 5.6875 C-2 3 -2 3 0 0 Z " fill="#443329" transform="translate(181,122)"/>
<path d="M0 0 C0.99 0.33 1.98 0.66 3 1 C3 1.99 3 2.98 3 4 C3.99 4 4.98 4 6 4 C6.33 3.01 6.66 2.02 7 1 C7.66 2.32 8.32 3.64 9 5 C7.35 5.33 5.7 5.66 4 6 C4 6.66 4 7.32 4 8 C3.01 7.67 2.02 7.34 1 7 C0.67 4.69 0.34 2.38 0 0 Z " fill="#3E3634" transform="translate(202,119)"/>
<path d="M0 0 C1.98 0.99 1.98 0.99 4 2 C3.67 2.99 3.34 3.98 3 5 C3.66 5 4.32 5 5 5 C5 5.66 5 6.32 5 7 C5.66 7 6.32 7 7 7 C7.33 8.98 7.66 10.96 8 13 C7.34 13 6.68 13 6 13 C5 11.33333333 4 9.66666667 3 8 C2.34 8 1.68 8 1 8 C0.67 5.36 0.34 2.72 0 0 Z " fill="#1F1C1D" transform="translate(130,61)"/>
<path d="M0 0 C0.99 0 1.98 0 3 0 C2.54917531 1.46067199 2.08906463 2.91848032 1.625 4.375 C1.36976562 5.18710938 1.11453125 5.99921875 0.8515625 6.8359375 C0 9 0 9 -2 11 C-4.125 10.625 -4.125 10.625 -6 10 C-5.65066406 9.52949219 -5.30132812 9.05898437 -4.94140625 8.57421875 C-4.48636719 7.95160156 -4.03132813 7.32898438 -3.5625 6.6875 C-2.88380859 5.76517578 -2.88380859 5.76517578 -2.19140625 4.82421875 C-0.82663692 2.90322899 -0.82663692 2.90322899 0 0 Z " fill="#1A1718" transform="translate(85,72)"/>
<path d="M0 0 C5.21979128 -0.1799928 9.07262981 0.02905192 14 2 C14 2.66 14 3.32 14 4 C8.34605369 4.34615998 4.96993194 3.43425238 0 1 C0 0.67 0 0.34 0 0 Z " fill="#171516" transform="translate(99,51)"/>
<path d="M0 0 C2 2 2 2 2.1953125 5.0390625 C2.17210937 6.22242188 2.14890625 7.40578125 2.125 8.625 C2.10695312 9.81351563 2.08890625 11.00203125 2.0703125 12.2265625 C2.04710937 13.14179688 2.02390625 14.05703125 2 15 C1.01 15.33 0.02 15.66 -1 16 C-0.67 10.72 -0.34 5.44 0 0 Z " fill="#4C3524" transform="translate(196,123)"/>
<path d="M0 0 C2.09375 -0.328125 2.09375 -0.328125 4.5 -0.25 C5.69109375 -0.22679687 5.69109375 -0.22679687 6.90625 -0.203125 C9 0 9 0 11 1 C11 1.66 11 2.32 11 3 C6.71 3 2.42 3 -2 3 C-1.34 2.01 -0.68 1.02 0 0 Z " fill="#161314" transform="translate(137,61)"/>
<path d="M0 0 C2.04119788 1.61594832 4.04072937 3.2856382 6 5 C6 5.66 6 6.32 6 7 C6.66 7 7.32 7 8 7 C7.67 8.32 7.34 9.64 7 11 C4 10 4 10 2.83203125 8.22265625 C2.49558594 7.50980469 2.15914063 6.79695312 1.8125 6.0625 C1.46832031 5.35222656 1.12414062 4.64195313 0.76953125 3.91015625 C0 2 0 2 0 0 Z " fill="#171415" transform="translate(93,122)"/>
<path d="M0 0 C3.63 0 7.26 0 11 0 C11 0.99 11 1.98 11 3 C9.54176788 3.0270043 8.08339325 3.04639787 6.625 3.0625 C5.81289062 3.07410156 5.00078125 3.08570312 4.1640625 3.09765625 C2 3 2 3 0 2 C0 1.34 0 0.68 0 0 Z " fill="#2B2829" transform="translate(77,63)"/>
<path d="M0 0 C0 0.99 0 1.98 0 3 C0.99 2.67 1.98 2.34 3 2 C3.33 3.65 3.66 5.3 4 7 C3.01 6.34 2.02 5.68 1 5 C0.67 5.66 0.34 6.32 0 7 C-0.66 7 -1.32 7 -2 7 C-2.66 5.02 -3.32 3.04 -4 1 C-2 0 -2 0 0 0 Z " fill="#1F1D23" transform="translate(207,116)"/>
<path d="M0 0 C0.66 0 1.32 0 2 0 C3.3726682 1.97321053 4.70427617 3.97543152 6 6 C6.66 6.66 7.32 7.32 8 8 C8.66 7.67 9.32 7.34 10 7 C9.34 8.65 8.68 10.3 8 12 C7.34 11.67 6.68 11.34 6 11 C6 10.34 6 9.68 6 9 C5.34 9 4.68 9 4 9 C2.68 6.03 1.36 3.06 0 0 Z " fill="#1E1A1B" transform="translate(146,85)"/>
<path d="M0 0 C2.21858738 2.21858738 2.3936188 2.93831063 2.8125 5.9375 C2.92207031 6.62714844 3.03164062 7.31679688 3.14453125 8.02734375 C3 10 3 10 0 13 C0 8.71 0 4.42 0 0 Z " fill="#121011" transform="translate(131,23)"/>
<path d="M0 0 C0.33 0.99 0.66 1.98 1 3 C1.66 3.33 2.32 3.66 3 4 C3 5.98 3 7.96 3 10 C1.68 9.34 0.36 8.68 -1 8 C-1.04241723 5.66705225 -1.04092937 3.33297433 -1 1 C-0.67 0.67 -0.34 0.34 0 0 Z " fill="#141112" transform="translate(89,33)"/>
<path d="M0 0 C0.33 0 0.66 0 1 0 C1.33 2.31 1.66 4.62 2 7 C-1.625 10 -1.625 10 -5 10 C-4 7 -4 7 -1 5 C-0.27034634 2.43717258 -0.27034634 2.43717258 0 0 Z " fill="#0F0E13" transform="translate(183,133)"/>
<path d="M0 0 C0.33 0 0.66 0 1 0 C1.66 3.63 2.32 7.26 3 11 C2.01 10.67 1.02 10.34 0 10 C-1.125 2.25 -1.125 2.25 0 0 Z " fill="#2F1D17" transform="translate(173,131)"/>
<path d="M0 0 C0.66 0.33 1.32 0.66 2 1 C-0.97 4.96 -0.97 4.96 -4 9 C-4.99 8.67 -5.98 8.34 -7 8 C-6.67 7.01 -6.34 6.02 -6 5 C-6 5.66 -6 6.32 -6 7 C-5.34 7 -4.68 7 -4 7 C-3.71125 6.21625 -3.4225 5.4325 -3.125 4.625 C-2 2 -2 2 0 0 Z " fill="#0B0A0A" transform="translate(67,101)"/>
<path d="M0 0 C2.475 0.99 2.475 0.99 5 2 C3.68 2.33 2.36 2.66 1 3 C0.34 5.64 -0.32 8.28 -1 11 C-1.66 10.34 -2.32 9.68 -3 9 C-2.01 6.03 -1.02 3.06 0 0 Z " fill="#090707" transform="translate(97,51)"/>
<path d="M0 0 C0.66 0.99 1.32 1.98 2 3 C-1 5 -1 5 -5 5 C-5.33 4.01 -5.66 3.02 -6 2 C-4.02 1.34 -2.04 0.68 0 0 Z " fill="#0A090B" transform="translate(197,138)"/>
<path d="M0 0 C0.33 0 0.66 0 1 0 C1 3.3 1 6.6 1 10 C0.34 9.67 -0.32 9.34 -1 9 C-1.75 6.125 -1.75 6.125 -2 3 C-1.34 2.01 -0.68 1.02 0 0 Z " fill="#38282B" transform="translate(181,122)"/>
<path d="M0 0 C0.33 0.66 0.66 1.32 1 2 C1.66 2 2.32 2 3 2 C2.39816251 4.02045442 1.72693904 6.02111039 1 8 C0.01 8.495 0.01 8.495 -1 9 C-1.09765625 2.84765625 -1.09765625 2.84765625 -1 1 C-0.67 0.67 -0.34 0.34 0 0 Z " fill="#141112" transform="translate(159,77)"/>
<path d="M0 0 C3.80881639 1.44472346 5.29742886 3.32603071 7 7 C6.67 7.99 6.34 8.98 6 10 C4.99723227 8.52270825 3.99785546 7.04311423 3 5.5625 C2.443125 4.73878906 1.88625 3.91507812 1.3125 3.06640625 C0 1 0 1 0 0 Z " fill="#0B0809" transform="translate(143,84)"/>
<path d="M0 0 C0.99 0.33 1.98 0.66 3 1 C3 2.32 3 3.64 3 5 C1.68 5 0.36 5 -1 5 C-0.67 3.35 -0.34 1.7 0 0 Z " fill="#201E1F" transform="translate(110,30)"/>
</svg>
